<svg width="438" height="103" viewBox="0 0 438 103" fill="none" xmlns="http://www.w3.org/2000/svg">
<path d="M173.6 93.76C167.44 93.76 161.6 92.96 156.08 91.36C150.64 89.68 146.2 87.44 142.76 84.64C140.92 83.28 140 81.36 140 78.88C140 77.2 140.48 75.76 141.44 74.56C142.48 73.28 143.68 72.64 145.04 72.64C146.48 72.64 148.12 73.2 149.96 74.32C153.4 76.8 157 78.6 160.76 79.72C164.52 80.84 168.68 81.4 173.24 81.4C179.08 81.4 183.56 80.4 186.68 78.4C189.8 76.32 191.36 73.32 191.36 69.4C191.36 66.36 189.88 64.04 186.92 62.44C184.04 60.76 179.2 59.16 172.4 57.64C165.36 56.12 159.64 54.36 155.24 52.36C150.84 50.36 147.52 47.8 145.28 44.68C143.04 41.56 141.92 37.6 141.92 32.8C141.92 27.84 143.32 23.4 146.12 19.48C148.92 15.56 152.8 12.52 157.76 10.36C162.8 8.12 168.44 7 174.68 7C186.12 7 195.44 10.04 202.64 16.12C203.68 17 204.4 17.88 204.8 18.76C205.28 19.56 205.52 20.6 205.52 21.88C205.52 23.56 205 25.04 203.96 26.32C203 27.52 201.84 28.12 200.48 28.12C199.68 28.12 198.92 28 198.2 27.76C197.56 27.52 196.68 27.08 195.56 26.44C192.28 24.04 189.08 22.28 185.96 21.16C182.92 19.96 179.16 19.36 174.68 19.36C169.24 19.36 164.92 20.48 161.72 22.72C158.6 24.88 157.04 27.92 157.04 31.84C157.04 35.12 158.44 37.64 161.24 39.4C164.04 41.16 168.8 42.8 175.52 44.32C182.64 45.92 188.4 47.72 192.8 49.72C197.28 51.64 200.68 54.12 203 57.16C205.4 60.2 206.6 64 206.6 68.56C206.6 73.52 205.2 77.92 202.4 81.76C199.68 85.52 195.8 88.48 190.76 90.64C185.8 92.72 180.08 93.76 173.6 93.76Z" fill="url(#paint0_linear)"/>
<path d="M295.88 8C298.12 8 299.92 8.72 301.28 10.16C302.64 11.52 303.32 13.36 303.32 15.68V86.72C303.32 88.96 302.68 90.72 301.4 92C300.12 93.28 298.44 93.92 296.36 93.92C294.28 93.92 292.64 93.28 291.44 92C290.24 90.72 289.64 88.96 289.64 86.72V37.28L269.24 75.92C268.28 77.68 267.24 79 266.12 79.88C265 80.68 263.68 81.08 262.16 81.08C260.64 81.08 259.32 80.68 258.2 79.88C257.08 79.08 256.04 77.76 255.08 75.92L234.56 37.88V86.72C234.56 88.88 233.92 90.64 232.64 92C231.44 93.28 229.8 93.92 227.72 93.92C225.64 93.92 224 93.28 222.8 92C221.6 90.72 221 88.96 221 86.72V15.68C221 13.36 221.64 11.52 222.92 10.16C224.28 8.72 226.08 8 228.32 8C231.44 8 233.88 9.72 235.64 13.16L262.28 63.92L288.8 13.16C290.56 9.72 292.92 8 295.88 8Z" fill="url(#paint1_linear)"/>
<path d="M344.72 33C352.88 33 358.92 35.04 362.84 39.12C366.84 43.12 368.84 49.24 368.84 57.48V86.76C368.84 88.92 368.2 90.64 366.92 91.92C365.64 93.12 363.88 93.72 361.64 93.72C359.56 93.72 357.84 93.08 356.48 91.8C355.2 90.52 354.56 88.84 354.56 86.76V84.12C353.2 87.24 351.04 89.68 348.08 91.44C345.2 93.2 341.84 94.08 338 94.08C334.08 94.08 330.52 93.28 327.32 91.68C324.12 90.08 321.6 87.88 319.76 85.08C317.92 82.28 317 79.16 317 75.72C317 71.4 318.08 68 320.24 65.52C322.48 63.04 326.08 61.24 331.04 60.12C336 59 342.84 58.44 351.56 58.44H354.56V55.68C354.56 51.76 353.72 48.92 352.04 47.16C350.36 45.32 347.64 44.4 343.88 44.4C341.56 44.4 339.2 44.76 336.8 45.48C334.4 46.12 331.56 47.08 328.28 48.36C326.2 49.4 324.68 49.92 323.72 49.92C322.28 49.92 321.08 49.4 320.12 48.36C319.24 47.32 318.8 45.96 318.8 44.28C318.8 42.92 319.12 41.76 319.76 40.8C320.48 39.76 321.64 38.8 323.24 37.92C326.04 36.4 329.36 35.2 333.2 34.32C337.12 33.44 340.96 33 344.72 33ZM341 83.28C345 83.28 348.24 81.96 350.72 79.32C353.28 76.6 354.56 73.12 354.56 68.88V66.36H352.4C347.04 66.36 342.88 66.6 339.92 67.08C336.96 67.56 334.84 68.4 333.56 69.6C332.28 70.8 331.64 72.44 331.64 74.52C331.64 77.08 332.52 79.2 334.28 80.88C336.12 82.48 338.36 83.28 341 83.28Z" fill="url(#paint2_linear)"/>
<path d="M417.08 33C424.12 33 429.36 35 432.8 39C436.24 43 437.96 49.04 437.96 57.12V86.64C437.96 88.88 437.28 90.64 435.92 91.92C434.64 93.2 432.84 93.84 430.52 93.84C428.2 93.84 426.36 93.2 425 91.92C423.64 90.64 422.96 88.88 422.96 86.64V57.96C422.96 53.4 422.08 50.08 420.32 48C418.64 45.92 415.96 44.88 412.28 44.88C407.96 44.88 404.48 46.24 401.84 48.96C399.28 51.68 398 55.32 398 59.88V86.64C398 88.88 397.32 90.64 395.96 91.92C394.6 93.2 392.76 93.84 390.44 93.84C388.12 93.84 386.28 93.2 384.92 91.92C383.64 90.64 383 88.88 383 86.64V40.2C383 38.12 383.68 36.44 385.04 35.16C386.4 33.88 388.24 33.24 390.56 33.24C392.64 33.24 394.32 33.88 395.6 35.16C396.96 36.36 397.64 37.96 397.64 39.96V43.2C399.64 39.92 402.32 37.4 405.68 35.64C409.04 33.88 412.84 33 417.08 33Z" fill="url(#paint3_linear)"/>
<g clip-path="url(#clip0)">
<path d="M100.2 24L53.1 0.399997C51.9 -0.200003 50.6 -0.200003 49.4 0.399997L2.3 24C0.9 24.7 0 26.1 0 27.7C0 29.3 0.9 30.7 2.3 31.4L49.4 54.9C50 55.2 50.6 55.3 51.3 55.3C51.9 55.3 52.6 55.2 53.2 54.9L100.3 31.4C101.7 30.7 102.6 29.3 102.6 27.7C102.5 26.1 101.6 24.7 100.2 24ZM51.2 46.6L13.4 27.7L51.2 8.8L89 27.7L51.2 46.6Z" fill="url(#paint4_linear)"/>
<path d="M102 72.9C101 70.9 98.5 70 96.4 71L51.2 93.7L5.99998 71.1C3.99998 70.1 1.49998 70.9 0.39998 73C-0.60002 75 0.19998 77.5 2.29998 78.6L49.4 102C50 102.3 50.6 102.4 51.3 102.4C51.9 102.4 52.6 102.3 53.2 102L100.3 78.5C102.2 77.4 103 75 102 72.9Z" fill="url(#paint5_linear)"/>
<path d="M102 49.4C101 47.4 98.5 46.5 96.4 47.5L51.2 70.1L5.99998 47.5C3.99998 46.5 1.49998 47.3 0.39998 49.4C-0.60002 51.4 0.19998 53.9 2.29998 55L49.4 78.5C50 78.8 50.6 78.9 51.3 78.9C51.9 78.9 52.6 78.8 53.2 78.5L100.3 55C102.2 53.9 103 51.4 102 49.4Z" fill="url(#paint6_linear)"/>
</g>
<defs>
<linearGradient id="paint0_linear" x1="173.3" y1="7" x2="173.3" y2="93.76" gradientUnits="userSpaceOnUse">
<stop stop-color="#C57AFF"/>
<stop offset="1" stop-color="#9F59FF"/>
</linearGradient>
<linearGradient id="paint1_linear" x1="262.16" y1="8" x2="262.16" y2="93.92" gradientUnits="userSpaceOnUse">
<stop stop-color="#C57AFF"/>
<stop offset="1" stop-color="#9F59FF"/>
</linearGradient>
<linearGradient id="paint2_linear" x1="342.92" y1="33" x2="342.92" y2="94.08" gradientUnits="userSpaceOnUse">
<stop stop-color="#C57AFF"/>
<stop offset="1" stop-color="#9F59FF"/>
</linearGradient>
<linearGradient id="paint3_linear" x1="410.48" y1="33" x2="410.48" y2="93.84" gradientUnits="userSpaceOnUse">
<stop stop-color="#C57AFF"/>
<stop offset="1" stop-color="#9F59FF"/>
</linearGradient>
<linearGradient id="paint4_linear" x1="-14.647" y1="27.6825" x2="656.557" y2="27.6825" gradientUnits="userSpaceOnUse">
<stop offset="0.0015024" stop-color="#DA8CFF"/>
<stop offset="1" stop-color="#9A55FF"/>
</linearGradient>
<linearGradient id="paint5_linear" x1="-14.647" y1="86.5418" x2="656.557" y2="86.5418" gradientUnits="userSpaceOnUse">
<stop offset="0.0015024" stop-color="#DA8CFF"/>
<stop offset="1" stop-color="#9A55FF"/>
</linearGradient>
<linearGradient id="paint6_linear" x1="-14.647" y1="62.9979" x2="656.557" y2="62.9979" gradientUnits="userSpaceOnUse">
<stop offset="0.0015024" stop-color="#DA8CFF"/>
<stop offset="1" stop-color="#9A55FF"/>
</linearGradient>
<clipPath id="clip0">
<rect width="102.5" height="102.5" fill="white"/>
</clipPath>
</defs>
</svg>
